<svg xmlns="http://www.w3.org/2000/svg" xmlns:xlink="http://www.w3.org/1999/xlink" x="0px" y="0px" viewBox="0 0 21 26.25" style="enable-background:new 0 0 21 21;" xml:space="preserve"><g><path d="M19.5,15.5h-0.5v-6h0.5c0.4,0,0.8-0.3,0.9-0.7c0.1-0.4,0-0.8-0.3-1.1l-9-7c-0.4-0.3-0.9-0.3-1.2,0l-9,7   C0.6,8,0.5,8.4,0.6,8.8c0.1,0.4,0.5,0.7,0.9,0.7H2v6H1.6c-0.6,0-1,0.4-1,1s0.4,1,1,1h17.9c0.6,0,1-0.4,1-1S20,15.5,19.5,15.5z    M17,15.5h-3v-6h3V15.5z M12,9.5v6H9v-6H12z M10.5,2.8l6.1,4.7H4.4L10.5,2.8z M4,9.5h3v6H4V9.5z"></path><path d="M18.5,18.5H2.6c-0.6,0-1,0.4-1,1s0.4,1,1,1h15.9c0.6,0,1-0.4,1-1S19,18.5,18.5,18.5z"></path></g><text x="0" y="36" fill="#000000" font-size="5px" font-weight="bold" font-family="'Helvetica Neue', Helvetica, Arial-Unicode, Arial, Sans-serif">Created by ProSymbols</text><text x="0" y="41" fill="#000000" font-size="5px" font-weight="bold" font-family="'Helvetica Neue', Helvetica, Arial-Unicode, Arial, Sans-serif">from the Noun Project</text></svg>