<svg xmlns="http://www.w3.org/2000/svg" xmlns:xlink="http://www.w3.org/1999/xlink" x="0px" y="0px" viewBox="0 0 478.92 520" style="enable-background:new 0 0 478.92 416;" xml:space="preserve"><g><rect x="91.46" y="84" width="32" height="32"></rect><rect x="167.46" y="124" width="32" height="32"></rect><rect x="167.46" y="84" width="32" height="32"></rect><polygon points="142.187,228 198.658,188 100.309,188 10.308,228  "></polygon><rect x="279.46" y="124" width="32" height="32"></rect><rect x="91.46" y="124" width="32" height="32"></rect><path d="M35.46,208.067l62.375-27.722C98.347,180.117,98.9,180,99.46,180h110.492l27.196-19.264c1.387-0.982,3.238-0.982,4.625,0   L268.968,180H379.46c0.56,0,1.113,0.117,1.625,0.345l62.375,27.722V64h-408V208.067z M347.46,80c0-2.209,1.791-4,4-4h40   c2.209,0,4,1.791,4,4v80c0,2.209-1.791,4-4,4h-40c-2.209,0-4-1.791-4-4V80z M271.46,80c0-2.209,1.791-4,4-4h40c2.209,0,4,1.791,4,4   v80c0,2.209-1.791,4-4,4h-40c-2.209,0-4-1.791-4-4V80z M159.46,80c0-2.209,1.791-4,4-4h40c2.209,0,4,1.791,4,4v80   c0,2.209-1.791,4-4,4h-40c-2.209,0-4-1.791-4-4V80z M83.46,80c0-2.209,1.791-4,4-4h40c2.209,0,4,1.791,4,4v80c0,2.209-1.791,4-4,4   h-40c-2.209,0-4-1.791-4-4V80z"></path><polygon points="468.612,228 378.611,188 280.262,188 336.733,228  "></polygon><polygon points="447.46,56 467.46,56 467.46,48 239.46,48 11.46,48 11.46,56 31.46,56 35.46,56 443.46,56  "></polygon><polygon points="184.262,228 294.658,228 239.46,188.901  "></polygon><rect x="279.46" y="84" width="32" height="32"></rect><path d="M322.893,228l-83.433-59.099L156.027,228h14.395l66.725-47.264c1.387-0.982,3.238-0.982,4.625,0L308.498,228H322.893z"></path><rect x="355.46" y="84" width="32" height="32"></rect><rect x="355.46" y="124" width="32" height="32"></rect><rect x="279.46" y="340" width="32" height="36"></rect><rect x="279.46" y="296" width="32" height="36"></rect><path d="M347.46,416h56V296h-56V416z M367.46,348c4.418,0,8,3.582,8,8s-3.582,8-8,8s-8-3.582-8-8S363.042,348,367.46,348z"></path><rect x="235.46" y="252" width="8" height="164"></rect><path d="M35.46,416h32V292c0-2.209,1.791-4,4-4h64c2.209,0,4,1.791,4,4v124h88V252h-192V416z M159.46,292c0-2.209,1.791-4,4-4h40   c2.209,0,4,1.791,4,4v88c0,2.209-1.791,4-4,4h-40c-2.209,0-4-1.791-4-4V292z"></path><rect x="3.46" y="236" width="472" height="8"></rect><path d="M251.46,416h88V292c0-2.209,1.791-4,4-4h64c2.209,0,4,1.791,4,4v124h32V252h-192V416z M271.46,292c0-2.209,1.791-4,4-4h40   c2.209,0,4,1.791,4,4v88c0,2.209-1.791,4-4,4h-40c-2.209,0-4-1.791-4-4V292z"></path><polygon points="239.46,40 471.46,40 478.92,40 445.587,0 33.333,0 0,40 7.46,40  "></polygon><path d="M75.46,416h56V296h-56V416z M111.46,348c4.418,0,8,3.582,8,8s-3.582,8-8,8s-8-3.582-8-8S107.042,348,111.46,348z"></path><rect x="167.46" y="296" width="32" height="36"></rect><rect x="167.46" y="340" width="32" height="36"></rect></g><text x="0" y="431" fill="#000000" font-size="5px" font-weight="bold" font-family="'Helvetica Neue', Helvetica, Arial-Unicode, Arial, Sans-serif">Created by Amethyst Studio</text><text x="0" y="436" fill="#000000" font-size="5px" font-weight="bold" font-family="'Helvetica Neue', Helvetica, Arial-Unicode, Arial, Sans-serif">from the Noun Project</text></svg>