<svg xmlns="http://www.w3.org/2000/svg" data-name="Layer 1" viewBox="0 0 100 125" x="0px" y="0px"><title>03</title><g data-name="Group"><path data-name="Compound Path" d="M30.1,83.1H44.6V68.5H30.1Zm4-10.6h6.5v6.6H34.1Z"></path><path data-name="Compound Path" d="M93.1,42.7,83.6,27.5h5.6L74,7,58.2,27.5h5.7l-6,9.7-8.5-7.1-7.5,6.1-5.5-8.7h5.6L26.7,7,11,27.5h5.7L7.1,42.7H14L3.9,57.9H15L9.7,62.3l2.5,3.1L16.3,62V93H81.4V61.9l4.1,3.4,2.6-3.1-5.2-4.3H96.1l-9-15.2ZM73.9,13.6l7.3,9.9H66.3Zm4.9,13.9,7,11.2H61.6l7-11.2ZM26.7,13.6,34,23.5H19.1ZM21.3,27.5H31.6l7,11.2H14.3Zm-10,26.4,7.5-11.2H33.8L19.9,53.9ZM63.7,89H55.2V71.4h8.5Zm13.8,0H67.7V67.4H51.2V89H20.3V58.7L49.3,35.2,77.4,58.6ZM89.1,53.9H78.1L65.5,43.5l.6-.9H82.5Z"></path></g><text x="0" y="115" fill="#000000" font-size="5px" font-weight="bold" font-family="'Helvetica Neue', Helvetica, Arial-Unicode, Arial, Sans-serif">Created by Aiden Icons</text><text x="0" y="120" fill="#000000" font-size="5px" font-weight="bold" font-family="'Helvetica Neue', Helvetica, Arial-Unicode, Arial, Sans-serif">from the Noun Project</text></svg>